#
#
#

mtllib brain.mtl


#
#  Mesh Mesh Mesh
#
g  Mesh Mesh Mesh

v -0.945376 2.027923 0.000000
v 0.811299 2.042820 0.000000
v 1.496581 1.507734 0.000000
v -1.799495 1.393520 0.000000
v 1.983230 0.132205 0.000000
v -1.873983 0.152068 0.000000
v 1.436991 -0.801368 0.000000
v -1.044692 -0.826197 0.000000
v -1.268154 -1.720043 0.000000
v -2.166965 -1.695214 0.000000
v 2.603956 -1.466786 0.000000
v 1.595897 -1.685282 0.000000
v 1.367470 -2.052752 0.000000
v -1.114214 -2.077581 0.000000
vn 0.000000 -0.000000 -1.000000
vt 0.125000 0.500000
vt 0.375000 0.500000
vt 0.375000 0.750000
vt 0.125000 0.750000
f 1/1/1 2/2/1 3/3/1 4/4/1
f 4/4/1 3/3/1 5/3/1 6/4/1
f 6/4/1 5/3/1 7/3/1 8/4/1
f 6/4/1 8/4/1 9/4/1 10/4/1
f 7/3/1 5/3/1 11/3/1 12/3/1
f 8/4/1 7/3/1 13/3/1 14/4/1
